<svg id="visual" viewBox="0 0 900 600" width="900" height="600" xmlns="http://www.w3.org/2000/svg" xmlns:xlink="http://www.w3.org/1999/xlink" version="1.1"><rect x="0" y="0" width="900" height="600" fill="#75b9ee"></rect><path d="M0 354L11.5 365.5C23 377 46 400 69 407C92 414 115 405 138.2 393.3C161.3 381.7 184.7 367.3 207.8 364.7C231 362 254 371 277 374.3C300 377.7 323 375.3 346 372.8C369 370.3 392 367.7 415.2 367C438.3 366.3 461.7 367.7 484.8 366.2C508 364.7 531 360.3 554 366.8C577 373.3 600 390.7 623 398C646 405.3 669 402.7 692.2 394.3C715.3 386 738.7 372 761.8 366.2C785 360.3 808 362.7 831 373C854 383.3 877 401.7 888.5 410.8L900 420L900 601L888.5 601C877 601 854 601 831 601C808 601 785 601 761.8 601C738.7 601 715.3 601 692.2 601C669 601 646 601 623 601C600 601 577 601 554 601C531 601 508 601 484.8 601C461.7 601 438.3 601 415.2 601C392 601 369 601 346 601C323 601 300 601 277 601C254 601 231 601 207.8 601C184.7 601 161.3 601 138.2 601C115 601 92 601 69 601C46 601 23 601 11.5 601L0 601Z" fill="#ffce97"></path><path d="M0 392L11.5 400.2C23 408.3 46 424.7 69 423.5C92 422.3 115 403.7 138.2 394C161.3 384.3 184.7 383.7 207.8 393.2C231 402.7 254 422.3 277 420.5C300 418.7 323 395.3 346 396.2C369 397 392 422 415.2 427.2C438.3 432.3 461.7 417.7 484.8 407.7C508 397.7 531 392.3 554 388C577 383.7 600 380.3 623 390C646 399.7 669 422.3 692.2 429C715.3 435.7 738.7 426.3 761.8 415.8C785 405.3 808 393.7 831 393C854 392.3 877 402.7 888.5 407.8L900 413L900 601L888.5 601C877 601 854 601 831 601C808 601 785 601 761.8 601C738.7 601 715.3 601 692.2 601C669 601 646 601 623 601C600 601 577 601 554 601C531 601 508 601 484.8 601C461.7 601 438.3 601 415.2 601C392 601 369 601 346 601C323 601 300 601 277 601C254 601 231 601 207.8 601C184.7 601 161.3 601 138.2 601C115 601 92 601 69 601C46 601 23 601 11.5 601L0 601Z" fill="#fec88c"></path><path d="M0 433L11.5 429.8C23 426.7 46 420.3 69 424.3C92 428.3 115 442.7 138.2 450.2C161.3 457.7 184.7 458.3 207.8 457C231 455.7 254 452.3 277 447C300 441.7 323 434.3 346 431.5C369 428.7 392 430.3 415.2 436.8C438.3 443.3 461.7 454.7 484.8 450.2C508 445.7 531 425.3 554 424.5C577 423.7 600 442.3 623 445.5C646 448.7 669 436.3 692.2 428C715.3 419.7 738.7 415.3 761.8 417.8C785 420.3 808 429.7 831 428.7C854 427.7 877 416.3 888.5 410.7L900 405L900 601L888.5 601C877 601 854 601 831 601C808 601 785 601 761.8 601C738.7 601 715.3 601 692.2 601C669 601 646 601 623 601C600 601 577 601 554 601C531 601 508 601 484.8 601C461.7 601 438.3 601 415.2 601C392 601 369 601 346 601C323 601 300 601 277 601C254 601 231 601 207.8 601C184.7 601 161.3 601 138.2 601C115 601 92 601 69 601C46 601 23 601 11.5 601L0 601Z" fill="#fdc380"></path><path d="M0 442L11.5 441.5C23 441 46 440 69 447.5C92 455 115 471 138.2 474C161.3 477 184.7 467 207.8 467C231 467 254 477 277 472.7C300 468.3 323 449.7 346 440.7C369 431.7 392 432.3 415.2 432.3C438.3 432.3 461.7 431.7 484.8 440.5C508 449.3 531 467.7 554 476C577 484.3 600 482.7 623 480.2C646 477.7 669 474.3 692.2 471.5C715.3 468.7 738.7 466.3 761.8 462.5C785 458.7 808 453.3 831 449.7C854 446 877 444 888.5 443L900 442L900 601L888.5 601C877 601 854 601 831 601C808 601 785 601 761.8 601C738.7 601 715.3 601 692.2 601C669 601 646 601 623 601C600 601 577 601 554 601C531 601 508 601 484.8 601C461.7 601 438.3 601 415.2 601C392 601 369 601 346 601C323 601 300 601 277 601C254 601 231 601 207.8 601C184.7 601 161.3 601 138.2 601C115 601 92 601 69 601C46 601 23 601 11.5 601L0 601Z" fill="#fbbd75"></path><path d="M0 485L11.5 484C23 483 46 481 69 475.5C92 470 115 461 138.2 463.7C161.3 466.3 184.7 480.7 207.8 486.2C231 491.7 254 488.3 277 488.5C300 488.7 323 492.3 346 488.2C369 484 392 472 415.2 474C438.3 476 461.7 492 484.8 490.3C508 488.7 531 469.3 554 460.3C577 451.3 600 452.7 623 454.7C646 456.7 669 459.3 692.2 466.3C715.3 473.3 738.7 484.7 761.8 489.8C785 495 808 494 831 487.8C854 481.7 877 470.3 888.5 464.7L900 459L900 601L888.5 601C877 601 854 601 831 601C808 601 785 601 761.8 601C738.7 601 715.3 601 692.2 601C669 601 646 601 623 601C600 601 577 601 554 601C531 601 508 601 484.8 601C461.7 601 438.3 601 415.2 601C392 601 369 601 346 601C323 601 300 601 277 601C254 601 231 601 207.8 601C184.7 601 161.3 601 138.2 601C115 601 92 601 69 601C46 601 23 601 11.5 601L0 601Z" fill="#fab869"></path><path d="M0 476L11.5 480.3C23 484.7 46 493.3 69 493.7C92 494 115 486 138.2 489.8C161.3 493.7 184.7 509.3 207.8 514C231 518.7 254 512.3 277 508C300 503.7 323 501.3 346 504C369 506.7 392 514.3 415.2 513.7C438.3 513 461.7 504 484.8 500.8C508 497.7 531 500.3 554 505.2C577 510 600 517 623 520.5C646 524 669 524 692.2 519C715.3 514 738.7 504 761.8 497.7C785 491.3 808 488.7 831 486.2C854 483.7 877 481.3 888.5 480.2L900 479L900 601L888.5 601C877 601 854 601 831 601C808 601 785 601 761.8 601C738.7 601 715.3 601 692.2 601C669 601 646 601 623 601C600 601 577 601 554 601C531 601 508 601 484.8 601C461.7 601 438.3 601 415.2 601C392 601 369 601 346 601C323 601 300 601 277 601C254 601 231 601 207.8 601C184.7 601 161.3 601 138.2 601C115 601 92 601 69 601C46 601 23 601 11.5 601L0 601Z" fill="#ecab60"></path><path d="M0 542L11.5 536C23 530 46 518 69 514C92 510 115 514 138.2 513.8C161.3 513.7 184.7 509.3 207.8 508.7C231 508 254 511 277 514.2C300 517.3 323 520.7 346 523.3C369 526 392 528 415.2 527C438.3 526 461.7 522 484.8 519.8C508 517.7 531 517.3 554 515.8C577 514.3 600 511.7 623 511.7C646 511.7 669 514.3 692.2 519.7C715.3 525 738.7 533 761.8 530.8C785 528.7 808 516.3 831 513.3C854 510.3 877 516.7 888.5 519.8L900 523L900 601L888.5 601C877 601 854 601 831 601C808 601 785 601 761.8 601C738.7 601 715.3 601 692.2 601C669 601 646 601 623 601C600 601 577 601 554 601C531 601 508 601 484.8 601C461.7 601 438.3 601 415.2 601C392 601 369 601 346 601C323 601 300 601 277 601C254 601 231 601 207.8 601C184.7 601 161.3 601 138.2 601C115 601 92 601 69 601C46 601 23 601 11.5 601L0 601Z" fill="#dd9f57"></path><path d="M0 552L11.5 551.7C23 551.3 46 550.7 69 551.3C92 552 115 554 138.2 552.2C161.3 550.3 184.7 544.7 207.8 541C231 537.3 254 535.7 277 534.7C300 533.7 323 533.3 346 537C369 540.7 392 548.3 415.2 553.3C438.3 558.3 461.7 560.7 484.8 560.7C508 560.7 531 558.3 554 554.5C577 550.7 600 545.3 623 545C646 544.7 669 549.3 692.2 550C715.3 550.7 738.7 547.3 761.8 548.8C785 550.3 808 556.7 831 557C854 557.3 877 551.7 888.5 548.8L900 546L900 601L888.5 601C877 601 854 601 831 601C808 601 785 601 761.8 601C738.7 601 715.3 601 692.2 601C669 601 646 601 623 601C600 601 577 601 554 601C531 601 508 601 484.8 601C461.7 601 438.3 601 415.2 601C392 601 369 601 346 601C323 601 300 601 277 601C254 601 231 601 207.8 601C184.7 601 161.3 601 138.2 601C115 601 92 601 69 601C46 601 23 601 11.5 601L0 601Z" fill="#cf934f"></path><path d="M0 571L11.5 571.7C23 572.3 46 573.7 69 571.3C92 569 115 563 138.2 561.8C161.3 560.7 184.7 564.3 207.8 566.3C231 568.3 254 568.7 277 570.2C300 571.7 323 574.3 346 572.5C369 570.7 392 564.3 415.2 563.3C438.3 562.3 461.7 566.7 484.8 570C508 573.3 531 575.7 554 573.3C577 571 600 564 623 564.8C646 565.7 669 574.3 692.2 577.7C715.3 581 738.7 579 761.8 575.3C785 571.7 808 566.3 831 565.8C854 565.3 877 569.7 888.5 571.8L900 574L900 601L888.5 601C877 601 854 601 831 601C808 601 785 601 761.8 601C738.7 601 715.3 601 692.2 601C669 601 646 601 623 601C600 601 577 601 554 601C531 601 508 601 484.8 601C461.7 601 438.3 601 415.2 601C392 601 369 601 346 601C323 601 300 601 277 601C254 601 231 601 207.8 601C184.7 601 161.3 601 138.2 601C115 601 92 601 69 601C46 601 23 601 11.5 601L0 601Z" fill="#c18746"></path></svg>