<?xml version="1.0" encoding="UTF-8" standalone="no"?><!DOCTYPE svg PUBLIC "-//W3C//DTD SVG 1.1//EN" "http://www.w3.org/Graphics/SVG/1.1/DTD/svg11.dtd"><svg width="100%" height="100%" viewBox="0 0 8000 4500" version="1.1" xmlns="http://www.w3.org/2000/svg" xmlns:xlink="http://www.w3.org/1999/xlink" xml:space="preserve" xmlns:serif="http://www.serif.com/" style="fill-rule:evenodd;clip-rule:evenodd;stroke-linejoin:round;stroke-miterlimit:2;"><path d="M0,3391.67l729.167,-808.334l725,58.334l729.166,-54.167l725,462.5l729.167,133.333l725,-58.333l729.167,-95.833l725,95.833l729.166,287.5l725,-229.167l729.167,116.667l0,1204.17l-8000,-0l-0,-1112.5Z" style="fill:#f7a663;fill-rule:nonzero;"/><path d="M0,3516.67l729.167,25l725,-558.334l729.166,54.167l725,479.167l729.167,-262.5l725,212.5l729.167,-37.5l725,-300l729.166,-225l725,695.833l729.167,-400l0,1304.17l-8000,-0l-0,-987.5Z" style="fill:#f9b67e;fill-rule:nonzero;"/><path d="M0,3370.83l729.167,383.334l725,-183.334l729.166,-225l725,533.334l729.167,-591.667l725,16.667l729.167,387.5l725,41.666l729.166,-162.5l725,20.834l729.167,4.166l0,908.334l-8000,-0l-0,-1133.33Z" style="fill:#fbc699;fill-rule:nonzero;"/><path d="M0,4025l729.167,-429.167l725,416.667l729.166,-154.167l725,20.834l729.167,91.666l725,33.334l729.167,-200l725,254.166l729.166,-150l725,100l729.167,-329.166l0,825l-8000,-0l-0,-479.167Z" style="fill:#fcd6b5;fill-rule:nonzero;"/><path d="M0,3954.17l729.167,375l725,-129.167l729.166,-8.333l725,-250l729.167,112.5l725,91.666l729.167,-170.833l725,125l729.166,237.5l725,-20.833l729.167,-58.334l0,245.834l-8000,-0l-0,-550Z" style="fill:#fce5d2;fill-rule:nonzero;"/></svg>